<?xml version="1.0" encoding="utf-8"?>
<!-- Generator: Adobe Illustrator 25.0.0, SVG Export Plug-In . SVG Version: 6.00 Build 0)  -->
<svg version="1.1" id="Laag_1" xmlns="http://www.w3.org/2000/svg" xmlns:xlink="http://www.w3.org/1999/xlink" x="0px" y="0px"
	 viewBox="0 0 48 48" style="enable-background:new 0 0 48 48;" xml:space="preserve">
<style type="text/css">
	.st0{fill:#FFFFFF;}
</style>
<path class="st0" d="M9.3,48c-1.3,0-2.4-0.5-3.2-1.6c-0.5-0.7-0.8-1.6-0.8-2.4V7C5.3,6.5,4.9,6,4.3,6H3.6C3.1,6,2.7,5.4,2.7,4.9v-2
	C2.7,2.4,3.1,2,3.6,2h10.5c0.5,0,1.1-0.4,1.1-0.9l0,0c0-0.5,0.4-0.9,0.9-0.9h15.6c0.5,0,1.1,0.4,1.1,0.9l0,0c0,0.5,0.4,0.9,0.9,0.9
	h10.5c0.5,0,1.1,0.4,1.1,0.9v2c0,0.5-0.4,0.9-1.1,0.9h-0.7c-0.5,0-1.1,0.4-1.1,0.9V44c0,1.1-0.4,2-1.2,2.8c-0.8,0.8-1.7,1.2-2.8,1.2
	H9.3z M37.6,6H10.4C9.9,6,9.5,6.4,9.5,6.9v36c0,0.5,0.4,1.1,0.9,1.1h27.2c0.5,0,1.1-0.4,1.1-1.1v-36C38.5,6.4,38.1,6,37.6,6z
	 M17.5,38.3h2c0.5,0,1.1-0.4,1.1-1.1V12.6c0-0.5-0.4-0.9-1.1-0.9h-2c-0.5,0-0.9,0.4-0.9,0.9v24.7C16.4,37.7,16.8,38.3,17.5,38.3z
	 M28.5,38.3h2c0.5,0,1.1-0.4,1.1-1.1V12.6c0-0.5-0.4-0.9-1.1-0.9h-2c-0.5,0-0.9,0.4-0.9,0.9v24.7C27.5,37.7,27.9,38.3,28.5,38.3z
	 M9.3,6v38V6z"/>
</svg>
